HIERARCHY
ROOT Hips
{
  OFFSET 196.326 95.9168 97.7182
  CHANNELS 6 Xposition Yposition Zposition Zrotation Xrotation Yrotation
  JOINT LeftUpLeg
  {
    OFFSET 8.64259 1.95398 -2.38835
    CHANNELS 3 Zrotation Xrotation Yrotation
    JOINT LeftLeg
    {
      OFFSET 43.7702 0 0
      CHANNELS 3 Zrotation Xrotation Yrotation
      JOINT LeftFoot
      {
        OFFSET 40.6238 0 0
        CHANNELS 3 Zrotation Xrotation Yrotation
        JOINT LeftToeBase
        {
          OFFSET 12.7242 0 0
          CHANNELS 3 Zrotation Xrotation Yrotation
          End Site
          {
            OFFSET 0 0 0
          }
        }
      }
    }
  }
  JOINT RightUpLeg
  {
    OFFSET -8.2249 1.95398 -2.59336
    CHANNELS 3 Zrotation Xrotation Yrotation
    JOINT RightLeg
    {
      OFFSET 43.5653 0 0
      CHANNELS 3 Zrotation Xrotation Yrotation
      JOINT RightFoot
      {
        OFFSET 40.6238 0 0
        CHANNELS 3 Zrotation Xrotation Yrotation
        JOINT RightToeBase
        {
          OFFSET 12.7242 0 0
          CHANNELS 3 Zrotation Xrotation Yrotation
          End Site
          {
            OFFSET 0 0 0
          }
        }
      }
    }
  }
  JOINT Spine
  {
    OFFSET 0.165834 0.87714 6.61349
    CHANNELS 3 Zrotation Xrotation Yrotation
    JOINT Spine1
    {
      OFFSET 7.38963 1.71661e-005 0
      CHANNELS 3 Zrotation Xrotation Yrotation
      JOINT Spine2
      {
        OFFSET 11.9445 1.14441e-005 0
        CHANNELS 3 Zrotation Xrotation Yrotation
        JOINT Spine3
        {
          OFFSET 14.7254 4.19617e-005 0
          CHANNELS 3 Zrotation Xrotation Yrotation
          JOINT Spine4
          {
            OFFSET 10.9679 0 0
            CHANNELS 3 Zrotation Xrotation Yrotation
            JOINT RightShoulder
            {
              OFFSET 2.46616 -1.6653 3.69651
              CHANNELS 3 Zrotation Xrotation Yrotation
              JOINT RightArm
              {
                OFFSET 13.0012 0 0
                CHANNELS 3 Zrotation Xrotation Yrotation
                JOINT RightForeArm
                {
                  OFFSET 28.7848 1.52588e-005 0
                  CHANNELS 3 Zrotation Xrotation Yrotation
                  JOINT RightHand
                  {
                    OFFSET 26.5688 1.52588e-005 0
                    CHANNELS 3 Zrotation Xrotation Yrotation
                    End Site
                    {
                      OFFSET 0 0 0
                    }
                  }
                }
              }
            }
            JOINT LeftShoulder
            {
              OFFSET 2.38034 -1.29275 -3.75231
              CHANNELS 3 Zrotation Xrotation Yrotation
              JOINT LeftArm
              {
                OFFSET 16.3182 6.10351e-005 0
                CHANNELS 3 Zrotation Xrotation Yrotation
                JOINT LeftForeArm
                {
                  OFFSET 27.0901 0 0
                  CHANNELS 3 Zrotation Xrotation Yrotation
                  JOINT LeftHand
                  {
                    OFFSET 24.5451 1.52588e-005 0
                    CHANNELS 3 Zrotation Xrotation Yrotation
                    End Site
                    {
                      OFFSET 0 0 0
                    }
                  }
                }
              }
            }
            JOINT Neck
            {
              OFFSET 5.0226 -0.0266342 0
              CHANNELS 3 Zrotation Xrotation Yrotation
              JOINT Head
              {
                OFFSET 6.69363 2.86102e-005 0
                CHANNELS 3 Zrotation Xrotation Yrotation
                End Site
                {
                  OFFSET 0 0 0
                }
              }
            }
          }
        }
      }
    }
  }
}
MOTION
Frames:	15
Frame Time:	0.0416667
-280.27 79.5966 -280.758 75.7449 -40.0252 81.1952 -172.605 69.7846 88.8287 -57.5546 21.4907 0.380429 83.1888 29.8405 -19.4214 4.04842 -53.3655 30.3416 175.614 52.9016 100.018 -82.7451 8.67153 -0.740937 48.4692 4.6759 4.21305 61.8798 8.13423 25.5353 -0.579512 7.8604 -90.2922 11.1508 -1.28908 -0.455794 -0.519574 -1.3079 -0.398606 -23.058 -1.09252 -0.82218 -3.04537 -1.09252 -0.822177 79.3098 -52.956 -115.734 17.4171 12.3154 26.608 -21.171 12.8361 -140.88 13.3503 -1.45825 -10.9807 -103.19 -40.7324 55.2567 -33.4914 9.6171 12.9249 -6.17908 -7.12243 -59.5773 33.9073 0.878398 -1.41305 26.9637 3.27266 0.653056 -2.85103 3.01701 3.86982 
-273.99 81.2207 -274.648 72.184 -44.9211 78.7908 -171.366 67.4985 93.1118 -74.4482 17.9134 0.37763 99.0578 30.057 -19.3321 4.07739 -53.4922 30.4837 177.504 41.9535 100.449 -74.4937 6.1746 -2.06965 50.2585 3.40457 3.05845 80.5247 10.6252 17.5745 0.325949 7.73634 -90.0346 11.4082 0.632214 -0.138663 -0.262569 0.625483 -0.166354 -22.7992 0.644669 0.0577589 -2.78656 0.644659 0.0577489 80.17 -50.0781 -115.611 21.2712 14.6825 14.022 -21.4995 8.96966 -133.572 12.5944 -1.02576 -8.4577 -103.741 -40.3133 54.19 -36.6287 7.04625 21.1984 -6.46591 -7.75955 -56.7094 34.454 1.04229 -0.982409 30.0859 1.66124 -0.996243 -5.9161 2.00527 4.30306 
-266.162 85.2514 -266.171 69.5126 -48.785 72.6847 -164.745 57.6123 88.6259 -77.9018 17.1737 -0.855799 78.2689 15.4078 -1.22585 11.9755 -27.791 16.1958 -179.505 22.399 95.3073 -52.8358 2.00548 -3.94231 46.1394 2.31771 2.36399 95.5262 11.4249 11.8074 1.13655 7.42325 -89.4939 12.0179 2.49866 0.7406 0.349209 2.52885 0.629846 -22.1993 2.16054 1.45757 -2.18667 2.16055 1.45757 84.1211 -44.6291 -111.64 27.043 13.5701 7.95258 -23.0774 5.43708 -126.959 6.36916 -0.884072 -10.9912 -101.598 -41.539 58.1168 -41.0572 8.95765 31.3407 -7.01892 -6.99807 -63.9245 32.9295 1.31599 0.0178441 28.2941 0.291443 1.72683 -6.85697 -0.389848 2.8127 
-255.303 89.0917 -256.371 70.0804 -48.8646 71.9017 -165.853 55.9459 87.7834 -61.774 16.7338 -3.01636 50.0952 -5.03424 9.93565 39.9623 12.5681 0.888505 179.249 3.88532 90.7624 -31.6997 -2.44484 -3.74117 44.2846 2.05657 2.17073 84.4807 12.7503 20.3725 1.50801 7.18739 -89.2314 12.4854 3.36188 1.14708 0.81846 3.40908 0.997857 -21.7397 2.86165 2.105 -1.72706 2.86165 2.105 85.6897 -41.3317 -110.314 29.9315 9.17642 7.33744 -27.9542 -0.572781 -121.787 -8.45693 0.401524 -14.5355 -98.5173 -40.3262 62.4599 -46.402 8.51208 39.1429 -6.96268 -6.16382 -68.6562 35.4 1.349 -0.129818 25.8719 -1.34304 3.2348 -6.65805 -2.46857 0.498397 
-242.827 92.7953 -245.755 69.9634 -47.9604 71.7335 -170.397 50.0799 89.1114 -34.0439 24.9236 -4.9743 48.1598 -5.74454 13.1867 47.2976 19.7411 -2.88256 178.531 -2.24182 89.3013 -30.2883 -5.80511 -5.61367 52.1284 1.16636 1.15246 0.927783 -9.89046 24.9553 1.71959 6.97243 -89.0882 12.9101 3.85145 1.35782 1.24434 3.90747 1.18677 -21.3203 3.26526 2.45339 -1.30761 3.26526 2.45338 86.4109 -40.3086 -109.474 31.9807 -1.27883 8.89824 -33.5393 -0.456551 -120.933 -22.8604 1.31668 -11.8191 -98.1821 -38.7197 62.3134 -48.7754 3.34674 44.2068 -4.50518 -5.28246 -74.3486 36.4343 1.94277 1.39849 24.3403 -2.55316 3.24366 -7.14789 -3.58778 -0.115118 
-231.066 93.8925 -236.324 71.3261 -45.5176 76.0405 -172.125 45.5008 89.7337 -23.8628 20.7007 -4.08251 49.0145 -5.49671 10.1533 53.0097 26.299 -0.642593 178.718 0.191112 93.2487 -49.0634 -6.44126 -4.68033 70.2682 -4.47553 -2.22812 -32.8419 8.04231 -18.7894 1.56992 6.81083 -89.4012 13.2443 3.40415 0.770118 1.57765 3.43474 0.619377 -20.9851 3.01521 1.7584 -0.972459 3.01523 1.75838 86.7726 -40.6133 -108.753 35.4521 -14.397 12.4899 -33.0287 10.0534 -115.74 -24.6147 1.36792 -11.2728 -96.1878 -39.0553 65.726 -49.2376 3.67143 42.0464 -0.77265 -4.02088 -76.0523 37.4585 1.49591 0.0248497 22.3544 -3.10378 2.35972 -5.91736 -3.77658 -0.218662 
-220.774 93.0239 -227.004 78.0227 -44.2273 80.4726 -170.587 36.6799 87.1632 -28.218 19.7101 -4.27649 49.5526 -4.10399 11.4875 55.3388 24.4898 -13.7105 175.783 8.40759 94.498 -76.8843 -3.43696 -4.2914 75.8412 -6.74822 -3.01174 -35.8377 12.5414 -24.9793 1.22166 7.15039 -89.3365 12.5624 2.74308 1.00716 0.894008 2.78473 0.885373 -21.6556 2.31355 1.78529 -1.64295 2.31355 1.78528 84.9144 -44.6842 -110.357 36.9637 -20.9875 19.1074 -32.2229 10.8456 -100.284 -30.2883 3.75991 -18.6803 -96.7726 -40.9919 65.5318 -45.3838 1.73463 38.1342 0.278636 -3.98971 -79.9116 36.5754 2.1863 2.05083 18.1134 -3.24247 0.0262074 -2.5875 -3.15003 0.045809 
-211.143 90.8234 -218.619 82.5622 -44.6491 82.0269 -169.78 28.9696 85.0662 -38.4866 18.1465 -4.67542 59.6477 8.26612 20.6314 54.7827 19.625 -29.4757 174.514 21.092 92.8033 -91.1443 10.688 -4.63291 45.2842 -1.4165 -0.667648 17.333 2.04325 -10.6977 0.843857 7.4204 -89.0264 12.0165 2.13722 1.71019 0.34637 2.21043 1.61446 -22.1885 1.52456 2.27333 -2.17587 1.52455 2.27333 82.5113 -48.283 -112.788 38.5491 -20.2381 25.3712 -29.0724 0.000556131 -87.8992 -37.8525 2.93552 -13.4576 -96.9673 -42.1853 65.6737 -40.9584 1.33114 31.5647 2.66772 -3.31674 -83.5263 38.0773 2.46625 2.56769 13.9196 -2.38857 -2.40822 2.02731 -1.67395 0.390242 
-201.506 89.225 -210.509 79.9847 -39.9073 79.8221 -171.735 25.0977 83.2307 -43.5153 18.5112 -3.09221 63.1912 14.9278 25.9357 62.9962 26.1973 -26.0268 169.122 38.657 93.5404 -96.5303 19.623 -4.68113 41.7384 -3.08612 -2.0533 33.4344 -0.103336 17.5456 -0.053928 7.35947 -88.899 12.1459 0.413788 2.15138 0.47329 0.50805 2.1311 -22.0476 -0.25177 2.17628 -2.03498 -0.251772 2.17629 80.7446 -51.1015 -114.368 37.6487 -18.7573 28.7556 -32.4941 -9.9641 -73.9897 -20.275 -0.513208 -1.72372 -100.037 -42.5257 60.9879 -33.8361 0.494948 21.879 5.92242 -2.95964 -87.7195 39.1712 3.35669 4.70181 17.7873 -1.88831 -4.21453 0.373557 -0.504353 1.44293 
-190.969 90.6044 -201.586 81.5381 -35.612 82.3189 -174.426 13.4629 86.3438 -38.4128 24.3116 -1.04581 60.1498 10.3192 22.0135 68.0372 33.7056 -16.7867 164.78 47.0892 95.4686 -89.5843 19.1959 -2.69912 46.3682 -2.41211 -1.43937 33.6013 -0.0605 16.4146 -0.78172 7.37206 -89.2045 12.136 -1.17762 1.71809 0.464485 -1.10089 1.76823 -22.0697 -1.6395 1.2848 -2.05702 -1.63951 1.28478 80.1514 -52.9197 -114.542 39.2162 -19.3878 37.441 -11.2255 -3.57073 -69.5052 -29.4054 -2.00213 3.37095 -98.3204 -39.8255 62.5644 -32.4719 1.65614 15.0329 7.73658 -3.57083 -94.5516 39.2798 3.66889 5.50102 17.0557 -1.03331 -5.33162 -0.0674958 0.708788 3.08648 
-179.67 93.2242 -191.582 81.8809 -36.2961 83.8623 -173.414 -0.343485 90.1403 -25.0481 26.5105 -0.132548 47.7237 -5.03415 5.91682 75.6388 42.2618 -12.6524 170.388 48.3059 93.7987 -69.8787 12.2502 0.34801 47.6978 0.221196 0.609294 36.2723 0.548784 11.8702 -0.990555 7.21488 -89.6029 12.4558 -1.77902 0.999705 0.785633 -1.7333 1.07705 -21.7587 -1.99722 0.418656 -1.74607 -1.99721 0.41865 81.4842 -52.2753 -112.858 42.3525 -19.4218 46.356 -15.5266 -4.22797 -72.02 -26.5916 -1.46648 1.79774 -96.6628 -39.2056 65.0054 -32.8979 2.65678 14.1753 11.3262 -6.09983 -107.358 36.6837 3.63167 6.09322 16.2332 0.34273 -5.47272 -0.625354 2.16808 5.68551 
-168.154 95.2462 -180.71 79.7997 -36.6389 82.7985 -172.445 -8.05497 93.265 -16.7563 26.5117 0.364789 34.8048 -13.7126 -0.98986 34.5926 6.13373 -9.87906 177.02 44.2499 90.3458 -39.6426 12.1839 2.52579 48.8763 1.22414 1.3522 34.8632 0.217836 16.8461 -1.22375 6.86891 -89.8016 13.1451 -2.33329 0.686201 1.47598 -2.30083 0.788278 -21.076 -2.43158 -0.0471709 -1.06332 -2.4316 -0.0471796 82.6279 -50.4788 -111.816 44.2886 -17.4028 50.7582 -16.44 -2.18193 -74.865 -20.7508 -0.820402 -0.245331 -95.8836 -38.4375 65.9893 -33.8192 4.92072 16.5226 14.2344 -10.18 -116.256 38.1076 3.72594 5.95304 15.7866 1.11025 -6.07424 -1.94066 3.05421 7.15136 
-157.012 95.5105 -170.239 79.3696 -35.568 79.7825 -174.005 -7.2075 91.3624 -29.7315 16.6479 1.24892 37.5444 -11.196 1.75582 26.7068 -2.04191 -1.95247 -179.475 38.929 85.9919 -16.5533 12.5776 1.38252 48.0888 2.40033 2.30978 31.4006 -0.417124 14.3983 -1.46089 6.68308 -89.6691 13.5235 -2.73716 1.0158 1.85493 -2.68979 1.13535 -20.7032 -2.91579 0.14555 -0.690526 -2.91581 0.145549 85.0384 -48.5605 -108.832 43.8152 -15.6032 49.061 -19.3963 -1.11313 -77.4737 -26.3986 -0.881144 -0.67622 -95.3285 -37.7876 66.6633 -36.024 8.86663 17.7116 14.4483 -10.6491 -113.245 33.811 3.47005 6.49936 15.9979 1.18186 -4.71105 -3.05423 2.67903 6.92168 
-146.644 94.1539 -160.489 82.7156 -34.9296 80.6333 -174.012 -1.74648 90.099 -51.9479 14.2632 1.23122 39.6617 -9.79657 5.57531 31.4521 3.09116 -1.60483 178.432 35.6036 85.945 -20.4694 14.1682 2.55033 47.4982 2.19451 2.23985 31.17 -0.686076 18.6109 -1.36071 6.84255 -89.6337 13.2031 -2.52399 1.04649 1.53411 -2.47548 1.15659 -21.0204 -2.72175 0.239024 -1.00781 -2.72175 0.239023 85.2509 -49.723 -108.133 40.6501 -14.3964 44.2879 -15.2436 0.939896 -78.6481 -18.8957 -1.21773 2.92363 -97.242 -38.5453 63.7825 -36.6861 11.2279 19.5657 11.0227 -7.86767 -98.503 33.8638 2.51064 3.59197 12.8418 0.313651 -2.07211 -0.320285 1.14237 5.65935 
-137.144 91.7644 -151.581 88.7082 -35.5929 86.6663 -171.821 5.35782 95.8958 -72.5404 13.9444 1.01402 39.9822 -9.0644 6.38789 39.2678 11.5928 -0.890011 176.221 31.3235 91.029 -38.6539 11.9286 2.92671 64.7123 -1.65549 -0.844987 27.1481 -1.69092 19.7693 -0.969612 7.37775 -89.9549 12.1235 -1.90613 0.295599 0.453902 -1.89126 0.379222 -22.0923 -1.90679 -0.291133 -2.07968 -1.90679 -0.291143 83.2339 -51.1703 -110.676 35.7907 -13.1686 36.3773 -18.616 -1.10885 -77.8138 -25.2327 -0.73149 -1.34127 -97.8751 -39.7619 63.2543 -38.6996 12.1322 20.5148 10.5246 -4.3036 -84.3372 34.4875 2.33114 2.92579 10.6609 -1.09381 -0.46478 2.30717 -0.564297 5.02931 
